<mxfile host="app.diagrams.net" modified="2024-02-29T05:58:14.746Z" agent="Mozilla/5.0 (Windows NT 10.0; Win64; x64) AppleWebKit/537.36 (KHTML, like Gecko) Chrome/121.0.0.0 Safari/537.36" etag="KSUQWgxK-NRTH5YU5JVD" version="21.6.1" type="github">
  <diagram name="第 1 页" id="NugFIlC_5AXTpeOi0kfO">
    <mxGraphModel dx="1646" dy="1595" grid="1" gridSize="10" guides="1" tooltips="1" connect="1" arrows="1" fold="1" page="1" pageScale="1" pageWidth="827" pageHeight="1169" math="0" shadow="0">
      <root>
        <mxCell id="0" />
        <mxCell id="1" parent="0" />
        <mxCell id="lHJqDripPrJYjpCWwowJ-2" value="" style="group;strokeWidth=2;" vertex="1" connectable="0" parent="1">
          <mxGeometry x="-770" y="-1130.0045425867509" width="112.99997613365156" height="111.37602523659308" as="geometry" />
        </mxCell>
        <mxCell id="lHJqDripPrJYjpCWwowJ-3" value="" style="ellipse;whiteSpace=wrap;html=1;fillColor=none;opacity=80;container=0;strokeColor=#000000;strokeWidth=2;" vertex="1" parent="lHJqDripPrJYjpCWwowJ-2">
          <mxGeometry y="51.98000000000002" width="4.289976133651549" height="4.376025236593056" as="geometry" />
        </mxCell>
        <mxCell id="lHJqDripPrJYjpCWwowJ-4" value="" style="ellipse;whiteSpace=wrap;html=1;fillColor=none;opacity=80;container=0;strokeColor=#000000;strokeWidth=2;" vertex="1" parent="lHJqDripPrJYjpCWwowJ-2">
          <mxGeometry x="6.580000000000041" y="57.360000000000014" width="4.289976133651549" height="4.376025236593056" as="geometry" />
        </mxCell>
        <mxCell id="lHJqDripPrJYjpCWwowJ-5" value="" style="ellipse;whiteSpace=wrap;html=1;fillColor=none;opacity=80;container=0;strokeColor=#000000;strokeWidth=2;" vertex="1" parent="lHJqDripPrJYjpCWwowJ-2">
          <mxGeometry x="14.710000000000036" y="65" width="4.289976133651549" height="4.376025236593056" as="geometry" />
        </mxCell>
        <mxCell id="lHJqDripPrJYjpCWwowJ-6" value="" style="ellipse;whiteSpace=wrap;html=1;fillColor=none;opacity=80;container=0;strokeColor=#000000;strokeWidth=2;" vertex="1" parent="lHJqDripPrJYjpCWwowJ-2">
          <mxGeometry x="26.710000000000036" y="74" width="4.289976133651549" height="4.376025236593056" as="geometry" />
        </mxCell>
        <mxCell id="lHJqDripPrJYjpCWwowJ-7" value="" style="ellipse;whiteSpace=wrap;html=1;fillColor=none;opacity=80;container=0;strokeColor=#000000;strokeWidth=2;" vertex="1" parent="lHJqDripPrJYjpCWwowJ-2">
          <mxGeometry x="62.710000000000036" y="81" width="4.289976133651549" height="4.376025236593056" as="geometry" />
        </mxCell>
        <mxCell id="lHJqDripPrJYjpCWwowJ-8" value="" style="ellipse;whiteSpace=wrap;html=1;fillColor=none;opacity=80;container=0;strokeColor=#000000;strokeWidth=2;" vertex="1" parent="lHJqDripPrJYjpCWwowJ-2">
          <mxGeometry x="66.71000000000004" y="111.38" width="4.289976133651549" height="4.376025236593056" as="geometry" />
        </mxCell>
        <mxCell id="lHJqDripPrJYjpCWwowJ-9" value="" style="ellipse;whiteSpace=wrap;html=1;fillColor=none;opacity=80;container=0;strokeColor=#000000;strokeWidth=2;" vertex="1" parent="lHJqDripPrJYjpCWwowJ-2">
          <mxGeometry x="90.71000000000004" y="69" width="4.289976133651549" height="4.376025236593056" as="geometry" />
        </mxCell>
        <mxCell id="lHJqDripPrJYjpCWwowJ-10" value="" style="ellipse;whiteSpace=wrap;html=1;fillColor=none;opacity=80;container=0;strokeColor=#000000;strokeWidth=2;" vertex="1" parent="lHJqDripPrJYjpCWwowJ-2">
          <mxGeometry x="101.71000000000004" y="58" width="4.289976133651549" height="4.376025236593056" as="geometry" />
        </mxCell>
        <mxCell id="lHJqDripPrJYjpCWwowJ-11" value="" style="ellipse;whiteSpace=wrap;html=1;fillColor=none;opacity=80;container=0;strokeColor=#000000;strokeWidth=2;" vertex="1" parent="lHJqDripPrJYjpCWwowJ-2">
          <mxGeometry x="108.71000000000004" y="42" width="4.289976133651549" height="4.376025236593056" as="geometry" />
        </mxCell>
        <mxCell id="lHJqDripPrJYjpCWwowJ-12" value="" style="ellipse;whiteSpace=wrap;html=1;fillColor=none;opacity=80;container=0;strokeColor=#000000;strokeWidth=2;" vertex="1" parent="lHJqDripPrJYjpCWwowJ-2">
          <mxGeometry x="67.71000000000004" y="48" width="4.289976133651549" height="4.376025236593056" as="geometry" />
        </mxCell>
        <mxCell id="lHJqDripPrJYjpCWwowJ-13" value="" style="ellipse;whiteSpace=wrap;html=1;fillColor=none;opacity=80;container=0;strokeColor=#000000;strokeWidth=2;" vertex="1" parent="lHJqDripPrJYjpCWwowJ-2">
          <mxGeometry x="50.710000000000036" y="47" width="4.289976133651549" height="4.376025236593056" as="geometry" />
        </mxCell>
        <mxCell id="lHJqDripPrJYjpCWwowJ-14" value="" style="ellipse;whiteSpace=wrap;html=1;fillColor=none;opacity=80;container=0;strokeColor=#000000;strokeWidth=2;" vertex="1" parent="lHJqDripPrJYjpCWwowJ-2">
          <mxGeometry x="37.710000000000036" y="56" width="4.289976133651549" height="4.376025236593056" as="geometry" />
        </mxCell>
        <mxCell id="lHJqDripPrJYjpCWwowJ-15" value="" style="ellipse;whiteSpace=wrap;html=1;fillColor=none;opacity=80;container=0;strokeColor=#000000;strokeWidth=2;" vertex="1" parent="lHJqDripPrJYjpCWwowJ-2">
          <mxGeometry x="30.710000000000036" y="44" width="4.289976133651549" height="4.376025236593056" as="geometry" />
        </mxCell>
        <mxCell id="lHJqDripPrJYjpCWwowJ-16" value="" style="ellipse;whiteSpace=wrap;html=1;fillColor=none;opacity=80;container=0;strokeColor=#000000;strokeWidth=2;" vertex="1" parent="lHJqDripPrJYjpCWwowJ-2">
          <mxGeometry x="24.710000000000036" y="30" width="4.289976133651549" height="4.376025236593056" as="geometry" />
        </mxCell>
        <mxCell id="lHJqDripPrJYjpCWwowJ-17" value="" style="ellipse;whiteSpace=wrap;html=1;fillColor=none;opacity=80;container=0;strokeColor=#000000;strokeWidth=2;" vertex="1" parent="lHJqDripPrJYjpCWwowJ-2">
          <mxGeometry x="15.710000000000036" y="18" width="4.289976133651549" height="4.376025236593056" as="geometry" />
        </mxCell>
        <mxCell id="lHJqDripPrJYjpCWwowJ-18" value="" style="ellipse;whiteSpace=wrap;html=1;fillColor=none;opacity=80;container=0;strokeColor=#000000;strokeWidth=2;" vertex="1" parent="lHJqDripPrJYjpCWwowJ-2">
          <mxGeometry x="39.710000000000036" width="4.289976133651549" height="4.376025236593056" as="geometry" />
        </mxCell>
        <mxCell id="lHJqDripPrJYjpCWwowJ-19" value="" style="ellipse;whiteSpace=wrap;html=1;fillColor=none;opacity=80;container=0;strokeColor=#000000;strokeWidth=2;" vertex="1" parent="lHJqDripPrJYjpCWwowJ-2">
          <mxGeometry x="43.710000000000036" y="16" width="4.289976133651549" height="4.376025236593056" as="geometry" />
        </mxCell>
        <mxCell id="lHJqDripPrJYjpCWwowJ-20" value="" style="ellipse;whiteSpace=wrap;html=1;fillColor=none;opacity=80;container=0;strokeColor=#000000;strokeWidth=2;" vertex="1" parent="lHJqDripPrJYjpCWwowJ-2">
          <mxGeometry x="46.710000000000036" y="30" width="4.289976133651549" height="4.376025236593056" as="geometry" />
        </mxCell>
        <mxCell id="lHJqDripPrJYjpCWwowJ-21" value="" style="ellipse;whiteSpace=wrap;html=1;fillColor=none;opacity=80;container=0;strokeColor=#000000;strokeWidth=2;" vertex="1" parent="lHJqDripPrJYjpCWwowJ-2">
          <mxGeometry x="67.71000000000004" y="30" width="4.289976133651549" height="4.376025236593056" as="geometry" />
        </mxCell>
        <mxCell id="lHJqDripPrJYjpCWwowJ-22" value="" style="ellipse;whiteSpace=wrap;html=1;fillColor=none;opacity=80;container=0;strokeColor=#000000;strokeWidth=2;" vertex="1" parent="lHJqDripPrJYjpCWwowJ-2">
          <mxGeometry x="67.71000000000004" y="14" width="4.289976133651549" height="4.376025236593056" as="geometry" />
        </mxCell>
        <mxCell id="lHJqDripPrJYjpCWwowJ-23" value="" style="ellipse;whiteSpace=wrap;html=1;fillColor=none;opacity=80;container=0;strokeColor=#000000;strokeWidth=2;" vertex="1" parent="lHJqDripPrJYjpCWwowJ-2">
          <mxGeometry x="66.71000000000004" y="1" width="4.289976133651549" height="4.376025236593056" as="geometry" />
        </mxCell>
        <mxCell id="lHJqDripPrJYjpCWwowJ-24" value="" style="endArrow=none;html=1;rounded=0;entryX=0.5;entryY=0;entryDx=0;entryDy=0;exitX=0.5;exitY=1;exitDx=0;exitDy=0;strokeWidth=2;" edge="1" parent="lHJqDripPrJYjpCWwowJ-2" source="lHJqDripPrJYjpCWwowJ-7" target="lHJqDripPrJYjpCWwowJ-8">
          <mxGeometry width="50" height="50" relative="1" as="geometry">
            <mxPoint x="25.726830000000064" y="106.95101258675083" as="sourcePoint" />
            <mxPoint x="60.870000000000005" y="96.98454258675088" as="targetPoint" />
          </mxGeometry>
        </mxCell>
        <mxCell id="lHJqDripPrJYjpCWwowJ-25" value="" style="endArrow=none;html=1;rounded=0;entryX=0;entryY=0.5;entryDx=0;entryDy=0;exitX=1;exitY=1;exitDx=0;exitDy=0;fillColor=#ffe6cc;strokeColor=#d79b00;strokeWidth=2;" edge="1" parent="lHJqDripPrJYjpCWwowJ-2" source="lHJqDripPrJYjpCWwowJ-6" target="lHJqDripPrJYjpCWwowJ-7">
          <mxGeometry width="50" height="50" relative="1" as="geometry">
            <mxPoint x="39.710000000000036" y="81.00454258675086" as="sourcePoint" />
            <mxPoint x="41.710000000000036" y="104.00454258675086" as="targetPoint" />
          </mxGeometry>
        </mxCell>
        <mxCell id="lHJqDripPrJYjpCWwowJ-26" value="" style="endArrow=none;html=1;rounded=0;entryX=0;entryY=0.5;entryDx=0;entryDy=0;exitX=1;exitY=1;exitDx=0;exitDy=0;fillColor=#ffe6cc;strokeColor=#d79b00;strokeWidth=2;" edge="1" parent="lHJqDripPrJYjpCWwowJ-2" source="lHJqDripPrJYjpCWwowJ-5" target="lHJqDripPrJYjpCWwowJ-6">
          <mxGeometry width="50" height="50" relative="1" as="geometry">
            <mxPoint x="10.870000000000005" y="77.37454258675086" as="sourcePoint" />
            <mxPoint x="42.870000000000005" y="82.37454258675086" as="targetPoint" />
          </mxGeometry>
        </mxCell>
        <mxCell id="lHJqDripPrJYjpCWwowJ-27" value="" style="endArrow=none;html=1;rounded=0;entryX=0;entryY=0;entryDx=0;entryDy=0;exitX=1;exitY=1;exitDx=0;exitDy=0;fillColor=#ffe6cc;strokeColor=#d79b00;strokeWidth=2;" edge="1" parent="lHJqDripPrJYjpCWwowJ-2" source="lHJqDripPrJYjpCWwowJ-4" target="lHJqDripPrJYjpCWwowJ-5">
          <mxGeometry width="50" height="50" relative="1" as="geometry">
            <mxPoint y="69.37454258675086" as="sourcePoint" />
            <mxPoint x="8" y="76.37454258675086" as="targetPoint" />
          </mxGeometry>
        </mxCell>
        <mxCell id="lHJqDripPrJYjpCWwowJ-28" value="" style="endArrow=none;html=1;rounded=0;entryX=0;entryY=0;entryDx=0;entryDy=0;exitX=1;exitY=1;exitDx=0;exitDy=0;fillColor=#ffe6cc;strokeColor=#d79b00;strokeWidth=2;" edge="1" parent="lHJqDripPrJYjpCWwowJ-2" source="lHJqDripPrJYjpCWwowJ-3" target="lHJqDripPrJYjpCWwowJ-4">
          <mxGeometry width="50" height="50" relative="1" as="geometry">
            <mxPoint x="10" y="79.37454258675086" as="sourcePoint" />
            <mxPoint x="18" y="86.37454258675086" as="targetPoint" />
          </mxGeometry>
        </mxCell>
        <mxCell id="lHJqDripPrJYjpCWwowJ-29" value="" style="endArrow=none;html=1;rounded=0;exitX=1;exitY=1;exitDx=0;exitDy=0;fillColor=#ffe6cc;strokeColor=#EA6B66;entryX=0;entryY=0;entryDx=0;entryDy=0;strokeWidth=2;" edge="1" parent="lHJqDripPrJYjpCWwowJ-2" source="lHJqDripPrJYjpCWwowJ-14" target="lHJqDripPrJYjpCWwowJ-7">
          <mxGeometry width="50" height="50" relative="1" as="geometry">
            <mxPoint x="52.710000000000036" y="65.98454258675088" as="sourcePoint" />
            <mxPoint x="65.71000000000004" y="76.98454258675088" as="targetPoint" />
          </mxGeometry>
        </mxCell>
        <mxCell id="lHJqDripPrJYjpCWwowJ-30" value="" style="endArrow=none;html=1;rounded=0;exitX=0.5;exitY=1;exitDx=0;exitDy=0;fillColor=#ffe6cc;strokeColor=#EA6B66;entryX=0;entryY=0;entryDx=0;entryDy=0;strokeWidth=2;" edge="1" parent="lHJqDripPrJYjpCWwowJ-2" source="lHJqDripPrJYjpCWwowJ-15" target="lHJqDripPrJYjpCWwowJ-14">
          <mxGeometry width="50" height="50" relative="1" as="geometry">
            <mxPoint x="37.85000000000002" y="48.54454258675088" as="sourcePoint" />
            <mxPoint x="59.85000000000002" y="70.54454258675088" as="targetPoint" />
          </mxGeometry>
        </mxCell>
        <mxCell id="lHJqDripPrJYjpCWwowJ-31" value="" style="endArrow=none;html=1;rounded=0;exitX=0.5;exitY=1;exitDx=0;exitDy=0;fillColor=#ffe6cc;strokeColor=#EA6B66;entryX=0;entryY=0;entryDx=0;entryDy=0;strokeWidth=2;" edge="1" parent="lHJqDripPrJYjpCWwowJ-2" source="lHJqDripPrJYjpCWwowJ-16" target="lHJqDripPrJYjpCWwowJ-15">
          <mxGeometry width="50" height="50" relative="1" as="geometry">
            <mxPoint x="20.710000000000036" y="37.00454258675086" as="sourcePoint" />
            <mxPoint x="26.710000000000036" y="46.00454258675086" as="targetPoint" />
          </mxGeometry>
        </mxCell>
        <mxCell id="lHJqDripPrJYjpCWwowJ-32" value="" style="endArrow=none;html=1;rounded=0;exitX=1;exitY=1;exitDx=0;exitDy=0;fillColor=#ffe6cc;strokeColor=#EA6B66;entryX=0;entryY=0;entryDx=0;entryDy=0;strokeWidth=2;" edge="1" parent="lHJqDripPrJYjpCWwowJ-2" source="lHJqDripPrJYjpCWwowJ-17" target="lHJqDripPrJYjpCWwowJ-16">
          <mxGeometry width="50" height="50" relative="1" as="geometry">
            <mxPoint x="14" y="23.664542586750827" as="sourcePoint" />
            <mxPoint x="19" y="34.66454258675088" as="targetPoint" />
          </mxGeometry>
        </mxCell>
        <mxCell id="lHJqDripPrJYjpCWwowJ-33" value="" style="endArrow=none;html=1;rounded=0;exitX=0.5;exitY=1;exitDx=0;exitDy=0;fillColor=#ffe6cc;strokeColor=#00994D;entryX=0.5;entryY=0;entryDx=0;entryDy=0;strokeWidth=2;" edge="1" parent="lHJqDripPrJYjpCWwowJ-2" source="lHJqDripPrJYjpCWwowJ-13" target="lHJqDripPrJYjpCWwowJ-7">
          <mxGeometry width="50" height="50" relative="1" as="geometry">
            <mxPoint x="55" y="54.04454258675088" as="sourcePoint" />
            <mxPoint x="60" y="65.04454258675088" as="targetPoint" />
          </mxGeometry>
        </mxCell>
        <mxCell id="lHJqDripPrJYjpCWwowJ-34" value="" style="endArrow=none;html=1;rounded=0;exitX=0.5;exitY=1;exitDx=0;exitDy=0;fillColor=#ffe6cc;strokeColor=#00994D;entryX=0.5;entryY=0;entryDx=0;entryDy=0;strokeWidth=2;" edge="1" parent="lHJqDripPrJYjpCWwowJ-2" source="lHJqDripPrJYjpCWwowJ-20" target="lHJqDripPrJYjpCWwowJ-13">
          <mxGeometry width="50" height="50" relative="1" as="geometry">
            <mxPoint x="62.710000000000036" y="60.98454258675088" as="sourcePoint" />
            <mxPoint x="74.71000000000004" y="90.98454258675088" as="targetPoint" />
          </mxGeometry>
        </mxCell>
        <mxCell id="lHJqDripPrJYjpCWwowJ-35" value="" style="endArrow=none;html=1;rounded=0;exitX=0.5;exitY=1;exitDx=0;exitDy=0;fillColor=#ffe6cc;strokeColor=#00994D;entryX=0.5;entryY=0;entryDx=0;entryDy=0;strokeWidth=2;" edge="1" parent="lHJqDripPrJYjpCWwowJ-2" source="lHJqDripPrJYjpCWwowJ-19" target="lHJqDripPrJYjpCWwowJ-20">
          <mxGeometry width="50" height="50" relative="1" as="geometry">
            <mxPoint x="58.710000000000036" y="43.98454258675088" as="sourcePoint" />
            <mxPoint x="62.710000000000036" y="56.98454258675088" as="targetPoint" />
          </mxGeometry>
        </mxCell>
        <mxCell id="lHJqDripPrJYjpCWwowJ-36" value="" style="endArrow=none;html=1;rounded=0;exitX=0.5;exitY=1;exitDx=0;exitDy=0;fillColor=#ffe6cc;strokeColor=#00994D;entryX=0.5;entryY=0;entryDx=0;entryDy=0;strokeWidth=2;" edge="1" parent="lHJqDripPrJYjpCWwowJ-2" source="lHJqDripPrJYjpCWwowJ-18" target="lHJqDripPrJYjpCWwowJ-19">
          <mxGeometry width="50" height="50" relative="1" as="geometry">
            <mxPoint x="55.710000000000036" y="29.984542586750877" as="sourcePoint" />
            <mxPoint x="58.710000000000036" y="39.98454258675088" as="targetPoint" />
          </mxGeometry>
        </mxCell>
        <mxCell id="lHJqDripPrJYjpCWwowJ-37" value="" style="endArrow=none;html=1;rounded=0;exitX=0.5;exitY=1;exitDx=0;exitDy=0;fillColor=#ffe6cc;strokeColor=#CC6600;entryX=0.5;entryY=0;entryDx=0;entryDy=0;strokeWidth=2;" edge="1" parent="lHJqDripPrJYjpCWwowJ-2" source="lHJqDripPrJYjpCWwowJ-23" target="lHJqDripPrJYjpCWwowJ-22">
          <mxGeometry width="50" height="50" relative="1" as="geometry">
            <mxPoint x="62.710000000000036" y="8.374542586750863" as="sourcePoint" />
            <mxPoint x="65.71000000000004" y="18.374542586750863" as="targetPoint" />
          </mxGeometry>
        </mxCell>
        <mxCell id="lHJqDripPrJYjpCWwowJ-38" value="" style="endArrow=none;html=1;rounded=0;exitX=0.5;exitY=1;exitDx=0;exitDy=0;fillColor=#ffe6cc;strokeColor=#CC6600;entryX=0.5;entryY=0;entryDx=0;entryDy=0;strokeWidth=2;" edge="1" parent="lHJqDripPrJYjpCWwowJ-2" source="lHJqDripPrJYjpCWwowJ-22" target="lHJqDripPrJYjpCWwowJ-21">
          <mxGeometry width="50" height="50" relative="1" as="geometry">
            <mxPoint x="78.71000000000004" y="14.984542586750877" as="sourcePoint" />
            <mxPoint x="79.71000000000004" y="23.984542586750877" as="targetPoint" />
          </mxGeometry>
        </mxCell>
        <mxCell id="lHJqDripPrJYjpCWwowJ-39" value="" style="endArrow=none;html=1;rounded=0;exitX=0.5;exitY=1;exitDx=0;exitDy=0;fillColor=#ffe6cc;strokeColor=#CC6600;entryX=0.5;entryY=0;entryDx=0;entryDy=0;strokeWidth=2;" edge="1" parent="lHJqDripPrJYjpCWwowJ-2" source="lHJqDripPrJYjpCWwowJ-21" target="lHJqDripPrJYjpCWwowJ-12">
          <mxGeometry width="50" height="50" relative="1" as="geometry">
            <mxPoint x="72.00000000000006" y="34.00454258675086" as="sourcePoint" />
            <mxPoint x="72.00000000000006" y="46.00454258675086" as="targetPoint" />
          </mxGeometry>
        </mxCell>
        <mxCell id="lHJqDripPrJYjpCWwowJ-40" value="" style="endArrow=none;html=1;rounded=0;exitX=0.5;exitY=1;exitDx=0;exitDy=0;fillColor=#ffe6cc;strokeColor=#CC6600;entryX=0.5;entryY=0;entryDx=0;entryDy=0;strokeWidth=2;" edge="1" parent="lHJqDripPrJYjpCWwowJ-2" source="lHJqDripPrJYjpCWwowJ-12" target="lHJqDripPrJYjpCWwowJ-7">
          <mxGeometry width="50" height="50" relative="1" as="geometry">
            <mxPoint x="79.71000000000004" y="43.98454258675088" as="sourcePoint" />
            <mxPoint x="79.71000000000004" y="57.98454258675088" as="targetPoint" />
          </mxGeometry>
        </mxCell>
        <mxCell id="lHJqDripPrJYjpCWwowJ-41" value="" style="endArrow=none;html=1;rounded=0;exitX=0;exitY=1;exitDx=0;exitDy=0;fillColor=#ffe6cc;strokeColor=#CC0066;entryX=1;entryY=0.5;entryDx=0;entryDy=0;strokeWidth=2;" edge="1" parent="lHJqDripPrJYjpCWwowJ-2" source="lHJqDripPrJYjpCWwowJ-9" target="lHJqDripPrJYjpCWwowJ-7">
          <mxGeometry width="50" height="50" relative="1" as="geometry">
            <mxPoint x="89.71000000000004" y="53.98454258675088" as="sourcePoint" />
            <mxPoint x="89.71000000000004" y="67.98454258675088" as="targetPoint" />
          </mxGeometry>
        </mxCell>
        <mxCell id="lHJqDripPrJYjpCWwowJ-42" value="" style="endArrow=none;html=1;rounded=0;exitX=0;exitY=1;exitDx=0;exitDy=0;fillColor=#ffe6cc;strokeColor=#CC0066;entryX=1;entryY=0;entryDx=0;entryDy=0;strokeWidth=2;" edge="1" parent="lHJqDripPrJYjpCWwowJ-2" source="lHJqDripPrJYjpCWwowJ-10" target="lHJqDripPrJYjpCWwowJ-9">
          <mxGeometry width="50" height="50" relative="1" as="geometry">
            <mxPoint x="96.32326753377083" y="62.71973315135142" as="sourcePoint" />
            <mxPoint x="65.71000000000004" y="88.98454258675088" as="targetPoint" />
          </mxGeometry>
        </mxCell>
        <mxCell id="lHJqDripPrJYjpCWwowJ-43" value="" style="endArrow=none;html=1;rounded=0;exitX=0;exitY=1;exitDx=0;exitDy=0;fillColor=#ffe6cc;strokeColor=#CC0066;entryX=1;entryY=0;entryDx=0;entryDy=0;strokeWidth=2;" edge="1" parent="lHJqDripPrJYjpCWwowJ-2" source="lHJqDripPrJYjpCWwowJ-11" target="lHJqDripPrJYjpCWwowJ-10">
          <mxGeometry width="50" height="50" relative="1" as="geometry">
            <mxPoint x="112.71000000000004" y="62.98454258675088" as="sourcePoint" />
            <mxPoint x="109.71000000000004" y="69.98454258675088" as="targetPoint" />
          </mxGeometry>
        </mxCell>
      </root>
    </mxGraphModel>
  </diagram>
</mxfile>
